<?xml version="1.0" encoding="UTF-8" standalone="no"?>
<svg
   width="1024"
   height="1024"
   viewBox="0 0 1024 1024"
   role="img"
   aria-label="R47 launcher icon replica"
   version="1.1"
   id="svg4"
   sodipodi:docname="r47zen_path.svg"
   inkscape:version="1.4.4 (dcaf3e7, 2026-05-05)"
   xmlns:inkscape="http://www.inkscape.org/namespaces/inkscape"
   xmlns:sodipodi="http://sodipodi.sourceforge.net/DTD/sodipodi-0.dtd"
   xmlns="http://www.w3.org/2000/svg"
   xmlns:svg="http://www.w3.org/2000/svg">
  <sodipodi:namedview
     id="namedview4"
     pagecolor="#ffffff"
     bordercolor="#000000"
     borderopacity="0.25"
     inkscape:showpageshadow="2"
     inkscape:pageopacity="0.0"
     inkscape:pagecheckerboard="0"
     inkscape:deskcolor="#d1d1d1"
     inkscape:zoom="0.45254834"
     inkscape:cx="417.63494"
     inkscape:cy="683.90484"
     inkscape:window-width="1920"
     inkscape:window-height="1147"
     inkscape:window-x="-8"
     inkscape:window-y="-8"
     inkscape:window-maximized="1"
     inkscape:current-layer="svg4"
     showguides="true"
     showgrid="false"
     inkscape:lockguides="false">
    <inkscape:grid
       id="grid6"
       units="px"
       originx="0"
       originy="0"
       spacingx="1"
       spacingy="1"
       empcolor="#0099e5"
       empopacity="0.30196078"
       color="#0099e5"
       opacity="0.14901961"
       empspacing="5"
       enabled="true"
       visible="false" />
  </sodipodi:namedview>
  <defs
     id="defs1" />
  <path
     id="background"
     style="fill:#404040;stroke-width:4;fill-opacity:1"
     d="M 0,0 H 1024 V 1024 H 0 Z" />
  <path
     id="key"
     style="fill:#ffc36f;stroke-width:4.1456"
     d="m 176,400 h 672 c 26.592,0 48,21.408 48,48 v 416 c 0,26.592 -21.408,48 -48,48 H 176 c -26.592,0 -48,-21.408 -48,-48 V 448 c 0,-26.592 21.408,-48 48,-48 z" />
  <path
     id="shift-f"
     style="fill:#ffc36f;stroke-width:4"
     d="M 480,112 H 656 V 288 H 480 Z" />
  <path
     id="shift-g"
     style="fill:#8edafe;stroke-width:4"
     d="M 720,112 H 896 V 288 H 720 Z" />
  <path
     d="m 432.22654,767.31206 4.74496,-23.48144 h 136.75205 l -4.74495,23.48144 z m 136.99539,0 4.74496,-23.48144 h 136.75205 l -4.74495,23.48144 z m 136.9954,0 4.74495,-23.48144 h 136.75206 l -4.74496,23.48144 z"
     id="text-z"
     style="font-style:italic;font-weight:bold;font-size:249.171px;font-family:Consolas;-inkscape-font-specification:'Consolas, Bold Italic';dominant-baseline:middle;text-anchor:middle;stroke-width:4.67197"
     aria-label="___" />
  <path
     d="m 320.38698,722.00386 -9.19795,45.30845 h -40.36881 l 9.02762,-45.30845 H 176.28567 l 6.98364,-36.62149 113.27112,-140.69467 h 59.27572 l -28.10487,140.69467 h 33.72584 l -7.3243,36.62149 z m -12.26394,-137.11768 -82.2706,100.49619 h 62.3417 z M 412.87759,767.31231 H 363.31083 L 488.3349,584.88618 H 382.21774 l 8.34629,-40.19848 H 545.22596 L 537.05,584.88618 Z"
     id="text-47"
     style="font-style:italic;font-weight:bold;font-size:348.841px;font-family:Consolas;-inkscape-font-specification:'Consolas, Bold Italic';dominant-baseline:middle;text-anchor:middle;stroke-width:4.67197"
     aria-label="47" />
  <path
     d="m 560.59697,673.48339 q -0.24333,1.45999 -0.365,3.40664 -0.12166,1.82498 -0.12166,4.13662 0,11.07157 6.93493,17.15484 7.0566,5.96162 20.68314,5.96162 9.12492,0 19.58815,-1.33833 10.46324,-1.45998 20.07482,-4.13662 v 23.11645 q -10.21991,2.67664 -22.02146,4.37996 -11.67989,1.70331 -23.35979,1.70331 -11.92322,0 -21.41313,-2.91997 -9.48991,-2.91997 -16.05985,-8.63825 -6.56994,-5.71828 -10.09824,-14.35653 -3.5283,-8.63826 -3.5283,-20.19648 0,-16.78985 5.10995,-31.87637 5.23162,-15.08653 14.59987,-26.40142 9.48991,-11.43656 22.75145,-18.0065 13.26154,-6.6916 29.56473,-6.6916 10.5849,0 18.73649,2.43331 8.27325,2.43331 13.86987,6.81327 5.71828,4.37996 8.63825,10.5849 3.04164,6.08327 3.04164,13.50487 0,9.36825 -3.77163,17.03318 -3.77163,7.54326 -12.16656,13.01821 -8.39492,5.35328 -21.89979,8.39492 -13.38321,2.91997 -32.60636,2.91997 z m 17.6415,-21.1698 q 12.77488,0 20.56148,-1.45999 7.78659,-1.45998 12.04488,-3.77163 4.37996,-2.43331 5.83995,-5.59661 1.45999,-3.16331 1.45999,-6.56994 0,-6.44827 -4.98829,-10.21991 -4.98829,-3.77163 -13.26154,-3.77163 -6.69161,0 -12.28822,2.55498 -5.59662,2.43331 -9.97657,6.6916 -4.2583,4.2583 -7.4216,9.97658 -3.04164,5.71828 -4.86662,12.16655 z m 157.19187,72.75599 16.18152,-80.54258 q 1.94665,-10.09824 -0.60833,-15.45153 -2.43331,-5.47495 -8.63825,-5.47495 -3.64997,0 -7.7866,2.06832 -4.13662,2.06831 -8.27325,5.71828 -4.01496,3.5283 -7.90826,8.39492 -3.77163,4.74496 -6.93494,10.2199 -3.1633,5.35329 -5.47495,11.07157 -2.31164,5.71828 -3.40663,11.19323 l -10.46324,52.80284 h -29.68639 l 13.26155,-66.06439 q 0.72999,-3.77163 1.33832,-8.27325 0.72999,-4.50163 1.45998,-10.9499 0.85166,-6.56994 1.82499,-15.81652 0.97332,-9.24658 2.31164,-22.50812 h 24.21144 l -1.09499,22.50812 q 2.79831,-4.25829 7.0566,-8.63825 4.37996,-4.50163 9.97658,-8.15159 5.71828,-3.64997 12.53155,-5.96161 6.93493,-2.43331 14.84319,-2.43331 9.85491,0 16.66818,3.28497 6.93493,3.1633 10.82823,9.24658 3.8933,5.96161 4.86662,14.59986 0.97333,8.51659 -1.21665,19.22315 l -16.18152,79.93426 z"
     id="text-en"
     style="font-style:italic;font-weight:bold;font-size:249.171px;font-family:Consolas;-inkscape-font-specification:'Consolas, Bold Italic';dominant-baseline:middle;text-anchor:middle;stroke-width:4.67197"
     aria-label="en" />
</svg>
